<svg width="102" height="36" viewBox="0 0 102 36" fill="none" xmlns="http://www.w3.org/2000/svg">
<g clip-path="url(#clip0_2489_6809)">
<mask id="mask0_2489_6809" style="mask-type:luminance" maskUnits="userSpaceOnUse" x="0" y="0" width="102" height="36">
<path d="M101.727 0H0V36H101.727V0Z" fill="white"/>
</mask>
<g mask="url(#mask0_2489_6809)">
<path d="M5.13503 18.2745C6.32705 18.2765 7.50125 17.9851 8.55387 17.4258V32.5211C8.55387 34.4303 6.99127 36.0395 5.08049 36.0042C4.1886 35.9869 3.33907 35.6205 2.71447 34.9836C2.08987 34.3467 1.74007 33.4902 1.74023 32.5981V17.437C2.78672 17.9886 3.95211 18.2761 5.13503 18.2745Z" fill="#171818"/>
<path d="M10.2679 10.9704C10.2682 11.6674 10.126 12.3571 9.85013 12.9972C9.5742 13.6372 9.1704 14.2141 8.66348 14.6925C8.625 14.7294 8.58645 14.7663 8.5464 14.8016C7.66845 15.5827 6.5491 16.039 5.37529 16.0942C4.20149 16.1494 3.04426 15.8003 2.09684 15.1052C1.14941 14.41 0.469127 13.4109 0.169592 12.2746C-0.129944 11.1383 -0.0306059 9.93367 0.451018 8.86177C0.93264 7.78994 1.7674 6.91571 2.81591 6.38513C3.86441 5.85456 5.0632 5.69975 6.21209 5.94653C7.36099 6.19331 8.39048 6.82676 9.12862 7.74112C9.8667 8.65544 10.2689 9.79529 10.2679 10.9704Z" fill="white"/>
<path d="M10.2679 10.9704C10.2682 11.6674 10.126 12.3571 9.85013 12.9972C9.5742 13.6372 9.1704 14.2141 8.66348 14.6925C8.625 14.7294 8.58645 14.7663 8.5464 14.8016C7.66845 15.5827 6.5491 16.039 5.37529 16.0942C4.20149 16.1494 3.04426 15.8003 2.09684 15.1052C1.14941 14.41 0.469127 13.4109 0.169592 12.2746C-0.129944 11.1383 -0.0306059 9.93367 0.451018 8.86177C0.93264 7.78994 1.7674 6.91571 2.81591 6.38513C3.86441 5.85456 5.0632 5.69975 6.21209 5.94653C7.36099 6.19331 8.39048 6.82676 9.12862 7.74112C9.8667 8.65544 10.2689 9.79529 10.2679 10.9704Z" fill="#0160C9"/>
<path d="M26.2527 29.1869H24.8666C24.3479 29.1869 23.8504 28.9809 23.4837 28.6141C23.1169 28.2473 22.9109 27.7499 22.9109 27.2312V14.6916H27.8844C29.7951 14.6916 31.4043 13.1289 31.3674 11.2198C31.3501 10.3269 30.9831 9.47652 30.3452 8.85147C29.7073 8.2265 28.8495 7.87692 27.9565 7.8779H22.9029V3.48361C22.9029 1.57444 21.337 -0.0347259 19.431 0.000569847C18.5387 0.0177975 17.6888 0.384407 17.0639 1.02161C16.439 1.65881 16.089 2.51573 16.0892 3.40821V7.8779H11.7478C12.2502 8.95527 12.4823 10.1388 12.4242 11.3261C12.366 12.5133 12.0193 13.6685 11.4141 14.6916H16.0892V29.4179C16.0892 31.1625 16.7822 32.8356 18.0158 34.0692C18.6266 34.68 19.3517 35.1645 20.1498 35.4951C20.9478 35.8256 21.8032 35.9958 22.667 35.9958H26.3233C27.2154 35.9959 28.0719 35.6461 28.7088 35.0215C29.3457 34.3969 29.7121 33.5474 29.7294 32.6555C29.7646 30.7463 28.1555 29.1821 26.2463 29.1821" fill="#171818"/>
<path d="M48.9557 15.5128C47.9155 14.732 46.6863 14.242 45.3943 14.0931C44.1022 13.9442 42.7938 14.1417 41.6033 14.6655C40.4128 15.1892 39.3831 16.0202 38.6198 17.0733C37.8566 18.1264 37.3872 19.3635 37.2599 20.658C37.2374 20.897 37.2246 21.1392 37.2246 21.3783C37.2246 23.3237 37.9974 25.1894 39.3731 26.565C40.7486 27.9406 42.6143 28.7134 44.5597 28.7134C46.5051 28.7134 48.3708 27.9406 49.7464 26.565C51.122 25.1894 51.8948 23.3237 51.8948 21.3783V12.272C51.8948 11.8818 51.7398 11.5076 51.4639 11.2317C51.188 10.9558 50.8138 10.8008 50.4236 10.8008C50.0334 10.8008 49.6592 10.9558 49.3833 11.2317C49.1074 11.5076 48.9524 11.8818 48.9524 12.272L48.9557 15.5128ZM48.9557 21.3783C48.9557 22.5454 48.492 23.6648 47.6667 24.4901C46.8414 25.3154 45.722 25.779 44.5549 25.779C43.3877 25.779 42.2684 25.3154 41.4431 24.4901C40.6178 23.6648 40.1542 22.5454 40.1542 21.3783C40.1542 21.2339 40.1622 21.0879 40.1766 20.9435C40.2856 19.8335 40.8121 18.8063 41.6497 18.0697C42.4872 17.3331 43.5734 16.9422 44.6882 16.9761C45.803 17.0099 46.8635 17.466 47.6548 18.252C48.4462 19.038 48.9094 20.0952 48.9508 21.2098C48.9508 21.2644 48.9508 21.3222 48.9508 21.3783" fill="#171818"/>
<path d="M67.527 18.8513C67.05 17.564 66.2208 16.4366 65.1342 15.5975C64.0475 14.7585 62.747 14.2415 61.3808 14.1056C61.1415 14.0818 60.901 14.07 60.6605 14.0703C59.2614 14.0682 57.8914 14.4686 56.7138 15.2239C55.4844 16.0136 54.5177 17.1512 53.9367 18.4919C53.8853 18.6107 53.8371 18.7294 53.7939 18.8513C53.1574 20.576 53.1912 22.4768 53.8885 24.1778C54.6265 25.9411 56.0248 27.3459 57.7847 28.0922C59.5446 28.8383 61.5265 28.8668 63.307 28.1713C65.0876 27.4758 66.5256 26.1116 67.3138 24.3702C68.1021 22.6287 68.178 20.648 67.5255 18.8513M60.8739 25.8495C60.2799 25.877 59.6865 25.7857 59.1285 25.5808C58.5704 25.3759 58.0589 25.0616 57.6239 24.6563C57.189 24.251 56.8394 23.7629 56.5957 23.2206C56.352 22.6784 56.2191 22.0928 56.2047 21.4985C56.1904 20.9042 56.295 20.3129 56.5123 19.7596C56.7296 19.2062 57.0552 18.7018 57.4702 18.276C57.8851 17.8502 58.3809 17.5116 58.9284 17.2801C59.476 17.0486 60.0643 16.9287 60.6588 16.9277C60.8064 16.9277 60.954 16.9277 61.0984 16.9485C61.7436 17.0117 62.3673 17.2146 62.9262 17.5432C63.4851 17.8718 63.9656 18.3182 64.3344 18.8513C64.3617 18.8882 64.3857 18.9267 64.4098 18.9636C64.8361 19.6222 65.0814 20.3814 65.121 21.1649C65.1605 21.9484 64.9929 22.7285 64.635 23.4266C64.2772 24.1247 63.7417 24.7162 63.0825 25.1416C62.4234 25.5669 61.6638 25.8111 60.8802 25.8495" fill="#171818"/>
<path d="M77.9015 15.7557H75.4047V12.263C75.4047 11.8524 75.242 11.4586 74.9513 11.1683C74.661 10.8779 74.2672 10.7148 73.8566 10.7148C73.446 10.7148 73.0522 10.8779 72.7618 11.1683C72.4715 11.4586 72.3084 11.8524 72.3084 12.263V15.7557H69.7767C69.3661 15.7557 68.9723 15.9188 68.682 16.2091C68.3916 16.4995 68.2285 16.8933 68.2285 17.3039C68.2285 17.7145 68.3916 18.1083 68.682 18.3986C68.9723 18.689 69.3661 18.852 69.7767 18.852H72.31V25.7299C72.31 25.7861 72.31 25.8406 72.318 25.8903C72.3606 26.6542 72.6942 27.3728 73.25 27.8985C73.8058 28.4242 74.5419 28.7172 75.3072 28.7172H76.9692C77.375 28.7169 77.7642 28.5576 78.0537 28.2737C78.3432 27.9897 78.5105 27.6035 78.5187 27.1979C78.5187 26.9899 78.4782 26.7839 78.3987 26.5918C78.3185 26.3997 78.2022 26.2251 78.0545 26.0783C77.9075 25.9314 77.7327 25.8151 77.54 25.7361C77.348 25.657 77.1417 25.6167 76.934 25.6176H76.3002C76.064 25.6176 75.8375 25.5241 75.6695 25.3576C75.5022 25.191 75.4077 24.965 75.4062 24.7288V18.8569H77.9015C78.3117 18.8569 78.7055 18.6938 78.9957 18.4035C79.286 18.1131 79.4495 17.7193 79.4495 17.3087C79.4495 17.1054 79.409 16.9041 79.3317 16.7162C79.2537 16.5284 79.1397 16.3577 78.9957 16.2139C78.8525 16.0702 78.6815 15.9561 78.4932 15.8784C78.3057 15.8005 78.1047 15.7605 77.9015 15.7605" fill="#171818"/>
<path d="M88.475 15.3717C88.7255 15.5374 89.0195 15.6261 89.3202 15.6267C89.732 15.6259 90.1265 15.4623 90.4182 15.1717C90.71 14.8811 90.8742 14.487 90.8765 14.0754C90.8765 13.691 90.7332 13.3204 90.4752 13.0357C90.2165 12.751 89.8617 12.5726 89.4792 12.5352C89.4297 12.5352 89.378 12.5352 89.3187 12.5352C89.0225 12.5349 88.7322 12.6195 88.4832 12.7791C88.2237 12.9468 88.019 13.1873 87.896 13.4705C87.752 13.8052 87.7302 14.1798 87.8345 14.5288C87.9387 14.8778 88.163 15.179 88.4667 15.3797" fill="#171818"/>
<path d="M83.469 25.6211C83.4188 25.6211 83.3678 25.6211 83.316 25.6211C83.0198 25.6208 82.7303 25.7054 82.4805 25.8649C82.221 26.0326 82.017 26.2731 81.8933 26.5564C81.792 26.7915 81.7515 27.048 81.7733 27.303C81.7958 27.5579 81.8813 27.8033 82.0215 28.0173C82.1618 28.2313 82.353 28.4073 82.5773 28.5294C82.8023 28.6516 83.0543 28.7162 83.31 28.7175C83.7218 28.7166 84.1163 28.5531 84.408 28.2624C84.699 27.9718 84.864 27.5777 84.8663 27.166C84.8663 26.7816 84.723 26.4111 84.4643 26.1264C84.2063 25.8417 83.8515 25.6633 83.469 25.6259" fill="#171818"/>
<path d="M89.3273 18.8516C88.9163 18.8516 88.5225 19.0147 88.2323 19.3051C87.942 19.5954 87.7793 19.9892 87.7793 20.3998V27.1637C87.7793 27.5744 87.942 27.9681 88.2323 28.2584C88.5225 28.5488 88.9163 28.712 89.3273 28.712C89.7375 28.712 90.1313 28.5488 90.4215 28.2584C90.7125 27.9681 90.8753 27.5744 90.8753 27.1637V20.3998C90.8753 20.1965 90.8355 19.9952 90.7575 19.8074C90.6795 19.6195 90.5655 19.4488 90.4215 19.3051C90.2783 19.1613 90.1073 19.0472 89.9198 18.9695C89.7315 18.8916 89.5305 18.8516 89.3273 18.8516Z" fill="#171818"/>
<path d="M100.178 18.8528C100.589 18.8528 100.983 18.6894 101.274 18.3988C101.564 18.1082 101.727 17.714 101.727 17.303C101.727 16.8919 101.564 16.4977 101.274 16.2071C100.983 15.9165 100.589 15.7532 100.178 15.7532H97.7193V12.2637C97.726 12.0561 97.6915 11.8492 97.6165 11.6555C97.5415 11.4617 97.4283 11.285 97.2843 11.1357C97.1395 10.9865 96.9663 10.8678 96.775 10.7868C96.5838 10.7058 96.3783 10.6641 96.1705 10.6641C95.9628 10.6641 95.7572 10.7058 95.566 10.7868C95.3747 10.8678 95.2015 10.9865 95.0575 11.1357C94.9127 11.285 94.7995 11.4617 94.7245 11.6555C94.6503 11.8492 94.615 12.0561 94.6218 12.2637V15.7532H92.3628C91.9518 15.7532 91.5573 15.9165 91.267 16.2071C90.976 16.4977 90.8125 16.8919 90.8125 17.303C90.8125 17.714 90.976 18.1082 91.267 18.3988C91.5573 18.6894 91.9518 18.8528 92.3628 18.8528H94.6218V25.7306C94.6218 25.7842 94.6248 25.8378 94.6315 25.891C94.6728 26.6537 95.0043 27.3715 95.5585 27.8972C96.1128 28.4229 96.847 28.7166 97.6105 28.7179H99.2725C99.6783 28.7175 100.067 28.5583 100.358 28.2744C100.647 27.9903 100.814 27.6042 100.823 27.1986C100.823 26.9906 100.781 26.7846 100.702 26.5925C100.622 26.4003 100.506 26.2258 100.359 26.079C100.211 25.9321 100.036 25.8159 99.844 25.7367C99.6512 25.6577 99.445 25.6174 99.2372 25.6183H98.605C98.4888 25.6183 98.3733 25.5953 98.2653 25.5506C98.158 25.5059 98.0605 25.4403 97.978 25.3578C97.8955 25.2752 97.8302 25.1772 97.786 25.0694C97.7417 24.9615 97.7193 24.846 97.7193 24.7295V18.8576L100.178 18.8528Z" fill="#171818"/>
</g>
</g>
<defs>
<clipPath id="clip0_2489_6809">
<rect width="102" height="36" fill="white"/>
</clipPath>
</defs>
</svg>
